<svg width="61" height="60" viewBox="0 0 61 60" fill="none" xmlns="http://www.w3.org/2000/svg">
<rect x="0.5" width="60" height="60" rx="6" fill="#5865F2"/>
<path d="M41.4393 20.027C44.9747 25.2572 46.7207 31.1568 46.068 37.9485C46.0653 37.9773 46.0504 38.0036 46.0269 38.021C43.3496 39.999 40.7557 41.1995 38.1981 41.9956C38.1782 42.0017 38.1569 42.0014 38.1372 41.9947C38.1175 41.988 38.1003 41.9752 38.0882 41.9582C37.4973 41.131 36.9604 40.2589 36.4901 39.3431C36.4631 39.2892 36.4877 39.2242 36.5433 39.2029C37.3959 38.8797 38.2067 38.4923 38.9866 38.0336C39.048 37.9973 39.0519 37.9088 38.9952 37.8662C38.8297 37.7426 38.6657 37.6127 38.5088 37.4827C38.4795 37.4587 38.4399 37.454 38.4067 37.4701C33.3436 39.8227 27.7973 39.8227 22.6743 37.4701C22.641 37.4552 22.6015 37.4603 22.573 37.4839C22.4164 37.6139 22.2521 37.7426 22.0881 37.8662C22.0314 37.9088 22.0361 37.9973 22.0979 38.0336C22.8778 38.4836 23.6886 38.8797 24.54 39.2045C24.5952 39.2258 24.6214 39.2892 24.594 39.3431C24.1339 40.2601 23.597 41.1322 22.9952 41.9594C22.969 41.9929 22.9259 42.0082 22.8852 41.9956C20.3398 41.1995 17.7458 39.999 15.0685 38.021C15.0462 38.0036 15.0302 37.9761 15.0278 37.9473C14.4824 32.0726 15.5941 26.1242 19.6523 20.0258C19.6621 20.0097 19.6769 19.9971 19.6941 19.9896C21.691 19.0675 23.8302 18.3891 26.0661 18.0017C26.1068 17.9954 26.1475 18.0143 26.1687 18.0505C26.4449 18.5426 26.7607 19.1738 26.9743 19.6896C29.3312 19.3273 31.7248 19.3273 34.1309 19.6896C34.3446 19.1848 34.6494 18.5426 34.9245 18.0505C34.9343 18.0325 34.9494 18.0181 34.9679 18.0093C34.9863 18.0006 35.007 17.9979 35.027 18.0017C37.2641 18.3903 39.4033 19.0687 41.3986 19.9896C41.4162 19.9971 41.4307 20.0097 41.4393 20.027ZM28.1725 31.1969C28.1972 29.4602 26.9387 28.0231 25.359 28.0231C23.7923 28.0231 22.546 29.4476 22.546 31.1969C22.546 32.9459 23.8169 34.3704 25.359 34.3704C26.9262 34.3704 28.1725 32.9459 28.1725 31.1969ZM38.5742 31.1969C38.5988 29.4602 37.3404 28.0231 35.7611 28.0231C34.1939 28.0231 32.9476 29.4476 32.9476 31.1969C32.9476 32.9459 34.2186 34.3704 35.7611 34.3704C37.3404 34.3704 38.5742 32.9459 38.5742 31.1969Z" fill="white"/>
</svg>
