<svg width="61" height="60" viewBox="0 0 61 60" fill="none" xmlns="http://www.w3.org/2000/svg">
<rect x="0.5" width="60" height="60" rx="6" fill="#00AEF3"/>
<path fill-rule="evenodd" clip-rule="evenodd" d="M46.2496 37.0362C46.2496 35.6455 45.919 34.3326 45.331 33.1659C45.5621 32.1252 45.6823 31.0475 45.6823 29.9401C45.6823 21.6441 38.8616 14.9166 30.4442 14.9166C29.5576 14.9166 28.6879 14.9925 27.8388 15.137C26.4769 14.2907 24.8652 13.8 23.1389 13.8C18.2568 13.8 14.3008 17.6999 14.3008 22.5145C14.3008 24.1218 14.7441 25.6255 15.5143 26.9217C15.3133 27.8958 15.2062 28.9068 15.2062 29.9401C15.2062 38.2398 22.0288 44.9655 30.4442 44.9655C31.3985 44.9655 32.3302 44.8785 33.2356 44.7137C34.481 45.3729 35.9012 45.7488 37.4133 45.7488C42.2936 45.7488 46.2496 41.8471 46.2496 37.0362ZM39.3275 33.7696C39.3275 35.0066 38.9668 36.1343 38.2605 37.1213C37.5561 38.1065 36.5154 38.8842 35.1629 39.4361C33.8273 39.9842 32.2269 40.2638 30.4029 40.2638C28.2145 40.2638 26.3793 39.8842 24.946 39.1342C23.9222 38.5898 23.0788 37.8528 22.4383 36.938C21.7902 36.0195 21.4633 35.1066 21.4633 34.2233C21.4633 33.6752 21.6775 33.1974 22.0983 32.8067C22.5153 32.4178 23.0506 32.2234 23.6893 32.2234C24.2115 32.2234 24.6642 32.3771 25.0305 32.6826C25.3818 32.9771 25.6824 33.4122 25.9247 33.9696C26.1952 34.5807 26.4882 35.0955 26.7982 35.4973C27.0987 35.8899 27.5289 36.2177 28.0774 36.4751C28.6297 36.7306 29.3754 36.864 30.2902 36.864C31.5507 36.864 32.5838 36.5973 33.3596 36.0751C34.1204 35.5659 34.4886 34.9511 34.4886 34.1992C34.4886 33.6085 34.2951 33.1419 33.9006 32.7752C33.4836 32.3937 32.937 32.0975 32.2739 31.8901C31.5807 31.679 30.6415 31.4475 29.4787 31.2068C27.8952 30.8734 26.5521 30.479 25.4851 30.029C24.3919 29.5716 23.5109 28.9365 22.8665 28.1421C22.2128 27.3328 21.8804 26.3199 21.8804 25.1292C21.8804 23.9959 22.2279 22.9719 22.9154 22.0904C23.5954 21.2145 24.591 20.5294 25.874 20.0646C27.1382 19.6035 28.6409 19.3702 30.3447 19.3702C31.7047 19.3702 32.9013 19.5257 33.9006 19.8331C34.9056 20.1405 35.7509 20.5553 36.4159 21.0682C37.0865 21.5867 37.5861 22.1367 37.898 22.7108C38.2135 23.2904 38.3751 23.8663 38.3751 24.4237C38.3751 24.9607 38.1647 25.4496 37.7496 25.8736C37.3325 26.3032 36.8047 26.5199 36.1848 26.5199C35.6213 26.5199 35.178 26.3829 34.8736 26.1162C34.5881 25.8662 34.2913 25.4773 33.9626 24.9218C33.5831 24.2107 33.1229 23.6496 32.5951 23.2534C32.0823 22.8682 31.2276 22.6756 30.0498 22.6756C28.9603 22.6756 28.0699 22.8904 27.4105 23.3182C26.7756 23.7274 26.4657 24.1996 26.4657 24.7589C26.4657 25.0996 26.5652 25.3866 26.7719 25.631C26.986 25.894 27.2922 26.1199 27.6792 26.3125C28.0793 26.5106 28.4925 26.6699 28.9058 26.781C29.3284 26.8977 30.0385 27.0699 31.0134 27.2921C32.2476 27.5513 33.3803 27.8458 34.3815 28.1624C35.3977 28.4809 36.2731 28.8735 36.9907 29.3346C37.7195 29.8031 38.2962 30.4031 38.7076 31.1216C39.119 31.8456 39.3275 32.7345 39.3275 33.7696Z" fill="white"/>
</svg>
