<svg width="61" height="60" viewBox="0 0 61 60" fill="none" xmlns="http://www.w3.org/2000/svg">
<rect x="0.5" width="60" height="60" rx="6" fill="#34AADF"/>
<path fill-rule="evenodd" clip-rule="evenodd" d="M47.0758 30.1875C47.0758 39.2381 39.7388 46.575 30.6883 46.575C21.6377 46.575 14.3008 39.2381 14.3008 30.1875C14.3008 21.137 21.6377 13.8 30.6883 13.8C39.7388 13.8 47.0758 21.137 47.0758 30.1875ZM32.2587 25.1591C29.4434 26.3751 21.3258 29.8286 21.3258 29.8286C19.402 30.6069 20.5281 31.3365 20.5281 31.3365C20.5281 31.3365 22.1704 31.9202 23.5781 32.3579C24.9857 32.7957 25.7365 32.3093 25.7365 32.3093C25.7365 32.3093 29.0211 30.0718 32.3525 27.6884C34.6986 26.0346 34.1356 27.3965 33.5725 27.9803C32.3525 29.2449 30.3349 31.2392 28.6456 32.8443C27.8949 33.5253 28.2703 34.109 28.5988 34.4008C29.554 35.2387 31.8039 36.7626 32.8254 37.4545C33.1084 37.6462 33.2972 37.774 33.3379 37.8057C33.5725 38.0003 34.8863 38.8758 35.684 38.6812C36.4817 38.4867 36.5755 37.3679 36.5755 37.3679C36.5755 37.3679 37.1855 33.3794 37.7486 29.7313C37.8529 29.015 37.9572 28.3138 38.0544 27.6599C38.3072 25.9604 38.5123 24.5807 38.5462 24.089C38.687 22.4352 36.9978 23.1161 36.9978 23.1161C36.9978 23.1161 33.3379 24.6727 32.2587 25.1591Z" fill="white"/>
</svg>
