<svg width="61" height="60" viewBox="0 0 61 60" fill="none" xmlns="http://www.w3.org/2000/svg">
<rect x="0.5" width="60" height="60" rx="6" fill="#51C332"/>
<path d="M36.6199 23.5766C37.2679 23.5766 37.9008 23.6304 38.5252 23.7074C37.3963 18.75 32.1894 15.0001 25.9282 15.0001C18.8414 15.0001 13.0977 19.8007 13.0977 25.7207C13.0977 29.1339 15.0181 32.1621 17.9967 34.1215L16.3052 37.5136L20.9132 35.5345C21.9013 35.8864 22.9281 36.1762 24.0249 36.311C23.875 35.6568 23.7898 34.9861 23.7898 34.2977C23.7898 28.386 29.544 23.5766 36.6199 23.5766ZM30.205 19.8241C31.0905 19.8241 31.8087 20.5445 31.8087 21.4324C31.8087 22.3206 31.0906 23.0405 30.205 23.0405C29.319 23.0405 28.6012 22.3206 28.6012 21.4324C28.6012 20.5444 29.319 19.8241 30.205 19.8241ZM21.6513 23.0405C20.7656 23.0405 20.0475 22.3206 20.0475 21.4324C20.0475 20.5445 20.7657 19.8241 21.6513 19.8241C22.5368 19.8241 23.2551 20.5445 23.2551 21.4324C23.255 22.3206 22.5368 23.0405 21.6513 23.0405Z" fill="white"/>
<path d="M47.312 34.2976C47.312 29.5608 42.5237 25.7207 36.6199 25.7207C30.7158 25.7207 25.9282 29.5608 25.9282 34.2976C25.9282 39.034 30.7158 42.8741 36.6199 42.8741C37.5908 42.8741 38.5144 42.7369 39.4105 42.542L45.1737 45.0181L43.1804 41.0239C45.6783 39.4541 47.312 37.04 47.312 34.2976ZM33.4124 33.7614C32.5269 33.7614 31.8086 33.0414 31.8086 32.153C31.8086 31.265 32.5268 30.5452 33.4124 30.5452C34.2983 30.5452 35.0161 31.2653 35.0161 32.153C35.0161 33.0414 34.2981 33.7614 33.4124 33.7614ZM39.8275 33.7614C38.9415 33.7614 38.2238 33.0414 38.2238 32.153C38.2238 31.265 38.9414 30.5452 39.8275 30.5452C40.7134 30.5452 41.4313 31.2653 41.4313 32.153C41.4313 33.0414 40.7134 33.7614 39.8275 33.7614Z" fill="white"/>
</svg>
