<svg width="61" height="60" viewBox="0 0 61 60" fill="none" xmlns="http://www.w3.org/2000/svg">
<rect x="0.5" width="60" height="60" rx="6" fill="#00D95F"/>
<path d="M15.5 43.8002L17.6524 35.8041C15.9165 32.6892 15.365 29.0544 16.0991 25.5666C16.8332 22.0788 18.8036 18.9721 21.6488 16.8165C24.4939 14.6608 28.023 13.6009 31.5884 13.8312C35.1538 14.0615 38.5164 15.5665 41.0591 18.0702C43.6018 20.5738 45.1541 23.908 45.4311 27.4611C45.7081 31.0142 44.6912 34.5477 42.5671 37.4133C40.4429 40.2789 37.354 42.2843 33.8672 43.0616C30.3803 43.8389 26.7294 43.3358 23.5843 41.6448L15.5 43.8002ZM23.9741 38.6526L24.4741 38.9484C26.7521 40.2952 29.4128 40.8526 32.0416 40.5336C34.6703 40.2146 37.1194 39.0372 39.0073 37.1849C40.8951 35.3325 42.1156 32.9093 42.4786 30.2929C42.8415 27.6764 42.3266 25.0137 41.014 22.7196C39.7014 20.4256 37.6648 18.6291 35.2217 17.61C32.7786 16.591 30.0661 16.4067 27.507 17.0859C24.948 17.7651 22.686 19.2696 21.0736 21.3649C19.4613 23.4602 18.5891 26.0287 18.5931 28.6701C18.5909 30.8602 19.1982 33.008 20.3472 34.8743L20.6608 35.3899L19.4574 39.8529L23.9741 38.6526Z" fill="white"/>
<path fill-rule="evenodd" clip-rule="evenodd" d="M36.1089 30.7233C35.8158 30.4875 35.4726 30.3215 35.1055 30.2381C34.7383 30.1546 34.3569 30.1557 33.9903 30.2415C33.4395 30.4697 33.0836 31.3319 32.7277 31.763C32.6526 31.8663 32.5424 31.9388 32.4175 31.9668C32.2927 31.9948 32.162 31.9764 32.0498 31.9151C30.0332 31.1273 28.3429 29.6826 27.2534 27.8156C27.1605 27.6991 27.1165 27.5512 27.1307 27.403C27.1449 27.2548 27.2163 27.1179 27.3297 27.0211C27.7266 26.6291 28.0181 26.1436 28.1771 25.6095C28.2124 25.0204 28.0771 24.4335 27.7873 23.919C27.5632 23.1976 27.1368 22.5553 26.5585 22.0679C26.2602 21.934 25.9295 21.8892 25.6062 21.9387C25.2829 21.9882 24.9809 22.1299 24.7366 22.3468C24.3124 22.7118 23.9757 23.1671 23.7514 23.6791C23.527 24.1911 23.4206 24.7468 23.44 25.3052C23.4413 25.6188 23.4812 25.9311 23.5587 26.235C23.7554 26.9652 24.0581 27.6629 24.4569 28.3059C24.7447 28.7984 25.0587 29.2753 25.3976 29.7344C26.4988 31.2423 27.8831 32.5226 29.4736 33.5042C30.2718 34.003 31.1248 34.4086 32.0159 34.7129C32.9415 35.1315 33.9635 35.2921 34.9733 35.1778C35.5487 35.091 36.0938 34.8644 36.5608 34.518C37.0277 34.1716 37.4022 33.7161 37.6512 33.1915C37.7975 32.8745 37.8419 32.5202 37.7783 32.1772C37.6257 31.4756 36.6851 31.0614 36.1089 30.7233Z" fill="white"/>
</svg>
