<svg width="24" height="24" viewBox="0 0 24 24" fill="none" xmlns="http://www.w3.org/2000/svg">
<path fill-rule="evenodd" clip-rule="evenodd" d="M8.24902 7.00151L8.24902 6C8.24902 3.92893 9.92796 2.25 11.999 2.25C14.0701 2.25 15.749 3.92893 15.749 6V7L15.749 7.00151C18.4334 7.0136 19.8596 7.1222 20.6596 8.09803C21.5598 9.19607 21.2277 10.8563 20.5637 14.1767L19.9637 17.1767C19.5019 19.4856 19.271 20.6401 18.4416 21.32C17.6121 22 16.4348 22 14.0802 22H9.91783C7.5632 22 6.38588 22 5.55645 21.32C4.72701 20.6401 4.49612 19.4856 4.03434 17.1767L3.43434 14.1767C2.77026 10.8563 2.43822 9.19607 3.33839 8.09803C4.13839 7.12219 5.56465 7.0136 8.24902 7.00151ZM9.74902 6C9.74902 4.75736 10.7564 3.75 11.999 3.75C13.2417 3.75 14.249 4.75736 14.249 6V7H9.74902V6ZM14.999 11C15.5513 11 15.999 10.5523 15.999 10C15.999 9.44772 15.5513 9 14.999 9C14.4467 9 13.999 9.44772 13.999 10C13.999 10.5523 14.4467 11 14.999 11ZM9.999 10C9.999 10.5523 9.55129 11 8.999 11C8.44672 11 7.999 10.5523 7.999 10C7.999 9.44772 8.44672 9 8.999 9C9.55129 9 9.999 9.44772 9.999 10Z" fill="url(#paint0_linear_906_7035)"/>
<defs>
<linearGradient id="paint0_linear_906_7035" x1="21.6634" y1="10.1363" x2="1.43943" y2="12.0063" gradientUnits="userSpaceOnUse">
<stop stop-color="#FDDEA7"/>
<stop offset="1" stop-color="#FAB53C"/>
</linearGradient>
</defs>
</svg>
