<svg width="171" height="170" viewBox="0 0 171 170" fill="none" xmlns="http://www.w3.org/2000/svg">
    <path
        d="M168.247 71.5154C175.039 97.8378 159.194 124.686 132.856 131.483C106.517 138.28 79.6584 122.452 72.8657 96.1295C68.3471 78.6197 -10.1179 72.5017 1.82318 60.5833C8.81777 58.7783 99.4386 38.4372 108.257 36.1616C134.595 29.3646 161.454 45.1931 168.247 71.5154Z"
        fill="#FF826C" />
    <path
        d="M170.031 83.4393C170.031 110.624 147.979 132.662 120.778 132.662C93.5761 132.662 71.5249 110.624 71.5249 83.4393C71.5249 65.3559 27.1046 42.7734 41.645 34.2169C48.8688 34.2169 111.671 34.217 120.778 34.217C147.979 34.217 170.031 56.2546 170.031 83.4393Z"
        fill="#FF6347" />
    <path
        d="M100.161 53.6437C106.98 48.5977 115.313 46.0232 123.789 46.3438C132.266 46.6645 140.381 49.8613 146.798 55.4081C153.216 60.9549 157.554 68.5212 159.099 76.8619C160.644 85.2026 159.303 93.8208 155.298 101.298C151.293 108.775 144.861 114.666 137.062 118.002C129.262 121.337 120.56 121.918 112.386 119.648C104.213 117.379 97.0556 112.395 92.0921 105.516C87.1287 98.6372 84.6548 90.2736 85.0777 81.8016L122.377 83.6634L100.161 53.6437Z"
        fill="#FFD954" />
    <path
        d="M100.161 53.6437C106.98 48.5977 115.313 46.0232 123.789 46.3438C132.266 46.6645 140.381 49.8613 146.798 55.4081C153.216 60.9549 157.554 68.5212 159.099 76.8619C160.644 85.2026 159.303 93.8208 155.298 101.298C151.293 108.775 144.861 114.666 137.062 118.002C129.262 121.337 120.56 121.918 112.386 119.648C104.213 117.379 97.0556 112.395 92.0921 105.516C87.1287 98.6372 84.6548 90.2736 85.0777 81.8016L96.2676 82.3601C95.9716 88.2906 97.7033 94.1451 101.178 98.9602C104.652 103.775 109.662 107.264 115.384 108.853C121.105 110.441 127.197 110.035 132.656 107.7C138.116 105.366 142.618 101.242 145.422 96.0077C148.226 90.7735 149.164 84.7408 148.083 78.9023C147.001 73.0638 143.964 67.7674 139.472 63.8847C134.98 60.0019 129.299 57.7642 123.366 57.5397C117.432 57.3152 111.599 59.1174 106.826 62.6496L100.161 53.6437Z"
        fill="#FFC700" />
    <g filter="url(#filter0_d_2068_18362)">
        <path
            d="M64.7658 71.7042C65.0546 66.1811 66.5666 60.791 69.1924 55.9235C71.8182 51.0559 75.4924 46.8323 79.9495 43.5578L102.061 73.6546L64.7658 71.7042Z"
            fill="#FFD954" />
        <path
            d="M64.7658 71.7042C65.0546 66.1811 66.5666 60.791 69.1924 55.9235C71.8182 51.0559 75.4924 46.8323 79.9495 43.5578L86.5829 52.5868C83.463 54.879 80.8911 57.8355 79.053 61.2428C77.2149 64.6501 76.1566 68.4231 75.9544 72.2893L64.7658 71.7042Z"
            fill="#FFC700" />
    </g>
    <defs>
        <filter id="filter0_d_2068_18362" x="54.7656" y="39.5577" width="57.2954" height="50.0968"
            filterUnits="userSpaceOnUse" color-interpolation-filters="sRGB">
            <feFlood flood-opacity="0" result="BackgroundImageFix" />
            <feColorMatrix in="SourceAlpha" type="matrix"
                values="0 0 0 0 0 0 0 0 0 0 0 0 0 0 0 0 0 0 127 0" result="hardAlpha" />
            <feOffset dy="6" />
            <feGaussianBlur stdDeviation="5" />
            <feComposite in2="hardAlpha" operator="out" />
            <feColorMatrix type="matrix" values="0 0 0 0 0 0 0 0 0 0 0 0 0 0 0 0 0 0 0.25 0" />
            <feBlend mode="normal" in2="BackgroundImageFix"
                result="effect1_dropShadow_2068_18362" />
            <feBlend mode="normal" in="SourceGraphic" in2="effect1_dropShadow_2068_18362"
                result="shape" />
        </filter>
    </defs>
</svg>
