<svg width="219" height="219" viewBox="0 0 219 219" fill="none" xmlns="http://www.w3.org/2000/svg">
<path fill-rule="evenodd" clip-rule="evenodd" d="M91.2045 36.5H127.795C162.294 36.5 179.543 36.5 190.26 47.1906C197.639 54.5514 199.938 65.001 200.653 82.0289C200.795 85.4058 200.866 87.0942 200.236 88.2207C199.605 89.3472 197.088 90.753 192.053 93.5646C186.462 96.6872 182.682 102.653 182.682 109.5C182.682 116.347 186.462 122.313 192.053 125.435C197.088 128.247 199.605 129.653 200.236 130.779C200.866 131.906 200.795 133.594 200.653 136.971C199.938 153.999 197.639 164.449 190.26 171.809C179.543 182.5 162.294 182.5 127.795 182.5H91.2045C56.7063 182.5 39.4571 182.5 28.7399 171.809C21.3608 164.449 19.0624 153.999 18.3465 136.971C18.2045 133.594 18.1336 131.906 18.7641 130.779C19.3947 129.653 21.9122 128.247 26.9469 125.435C32.5384 122.313 36.3181 116.347 36.3181 109.5C36.3181 102.653 32.5384 96.6872 26.9469 93.5646C21.9121 90.753 19.3947 89.3472 18.7641 88.2207C18.1336 87.0942 18.2045 85.4058 18.3465 82.0289C19.0624 65.001 21.3608 54.5514 28.7399 47.1906C39.4571 36.5 56.7063 36.5 91.2045 36.5ZM141.874 77.2857C144.553 79.9584 144.553 84.2916 141.874 86.9643L86.9876 141.714C84.3083 144.387 79.9643 144.387 77.285 141.714C74.6057 139.042 74.6057 134.708 77.285 132.036L132.171 77.2857C134.851 74.6131 139.195 74.6131 141.874 77.2857ZM132.449 141.438C137.501 141.438 141.597 137.352 141.597 132.312C141.597 127.273 137.501 123.188 132.449 123.188C127.397 123.188 123.301 127.273 123.301 132.312C123.301 137.352 127.397 141.438 132.449 141.438ZM86.7102 95.8125C91.7623 95.8125 95.8579 91.7271 95.8579 86.6875C95.8579 81.6479 91.7623 77.5625 86.7102 77.5625C81.658 77.5625 77.5624 81.6479 77.5624 86.6875C77.5624 91.7271 81.658 95.8125 86.7102 95.8125Z" fill="url(#paint0_linear_222_11902)"/>
<defs>
<linearGradient id="paint0_linear_222_11902" x1="205.252" y1="94.7986" x2="6.22178" y2="119.464" gradientUnits="userSpaceOnUse">
<stop stop-color="#FDDEA7"/>
<stop offset="1" stop-color="#FAB53C"/>
</linearGradient>
</defs>
</svg>
